<?xml version="1.0" encoding="utf-8"?>
<!-- Generator: Adobe Illustrator 28.0.0, SVG Export Plug-In . SVG Version: 6.00 Build 0)  -->
<svg version="1.1" id="_Layer_" xmlns="http://www.w3.org/2000/svg" xmlns:xlink="http://www.w3.org/1999/xlink" x="0px" y="0px"
	 viewBox="0 0 158 145" style="enable-background:new 0 0 158 145;" xml:space="preserve">
<style type="text/css">
	.st0{fill:#FFFFFF;}
	.st1{fill:#02236D;}
	.st2{fill:#FFFFFF;stroke:#3C4F99;stroke-miterlimit:10;}
	.st3{fill:#3C4F99;stroke:#3C4F99;stroke-miterlimit:10;}
	.st4{fill:#F89142;stroke:#F89142;stroke-miterlimit:10;}
</style>
<circle class="st0" cx="231.4" cy="69.6" r="69.7"/>
<g>
	<polygon class="st1" points="17.1,135.5 147.7,136.3 146.5,88.5 18.1,88 	"/>
	<polygon class="st2" points="10.3,48.4 17.1,67.3 139.1,27.7 132.2,8.7 	"/>
	<rect x="17.1" y="67.3" class="st2" width="130.6" height="20.7"/>
	<polygon class="st3" points="138.3,26.8 121.1,13 111.7,15.8 128,30.3 	"/>
	<polygon class="st3" points="116.7,34.9 99.5,21.1 90.2,23.9 106.4,38.3 	"/>
	<polygon class="st3" points="72.1,48.7 54.9,34.9 45.5,37.7 61.7,52.1 	"/>
	<polygon class="st3" points="94.4,41.8 77.2,28 67.9,30.8 84.1,45.2 	"/>
	<polygon class="st3" points="51.4,55.6 34.2,41.8 24.9,44.6 41.1,59 	"/>
	<path class="st3" d="M30.8,62.5L13.6,48.7c-1-0.1-2.2-0.1-2.5,0.5c-0.3,0.7,0.8,1.7,1.7,3.4c0.6,1.1,1.4,2.8,1.7,5.2l5.9,8.1
		L30.8,62.5L30.8,62.5z"/>
	<polygon class="st3" points="21.4,87.1 38.6,68.2 50.6,68.2 33.5,87.7 	"/>
	<polygon class="st3" points="45.5,87.1 62.7,68.2 74.7,68.2 57.5,87.7 	"/>
	<polygon class="st3" points="71.2,87.1 88.4,68.2 100.5,68.2 83.3,87.7 	"/>
	<polygon class="st3" points="97,87.1 114.2,68.2 126.2,68.2 109.1,87.7 	"/>
	<path class="st3" d="M140,68.2l-17.2,19l12,0.6l12.9-14.7v-4.9H140L140,68.2z"/>
	<polygon class="st3" points="18,76.8 26.6,68.2 18,68.2 	"/>
	<g>
		<path class="st4" d="M31.4,75c0,0.7,0.6,1.3,1.3,1.3h9.1c0,0,3.4,0,1.7-5.2c-1.4-4.2-5.2-13.2-6.4-16.2c-0.3-0.7-0.9-1.1-1.6-1.3
			c-1.5-0.3-4-0.4-4,2L31.4,75L31.4,75z"/>
		<ellipse class="st0" cx="34.9" cy="57.3" rx="1.7" ry="1.7"/>
		<ellipse class="st0" cx="37.5" cy="71.9" rx="1.7" ry="1.7"/>
	</g>
	<g>
		<path class="st0" d="M38.3,112.8c-0.8-1.1-1.3-2.7-1.3-4.7V103c0-0.8,0-1.4,0.1-1.9h-1.4v-1.5h5.5v1.4c-0.3,0-0.6,0-0.8,0.1
			s-0.3,0.3-0.4,0.5c-0.1,0.3-0.2,0.6-0.2,1.2v5.7c0,2.9,1.1,4.4,3.3,4.4c1,0,1.8-0.4,2.4-1.1s0.8-1.9,0.8-3.4V103
			c0-0.9,0-1.6,0.1-1.9H45v-1.5h4.5v1.4c-0.3,0-0.6,0-0.8,0.1s-0.3,0.3-0.4,0.5c-0.1,0.3-0.2,0.6-0.2,1.2v5.2c0,2.3-0.5,4-1.4,5
			c-1,1-2.3,1.6-3.9,1.6C40.7,114.5,39.2,113.9,38.3,112.8L38.3,112.8z"/>
		<path class="st0" d="M52.8,109.3c-0.2-0.4-0.3-0.8-0.6-1.5c-0.2-0.6-0.4-1.3-0.6-2l0,0c0,0.9,0,1.8,0,2.6v3.4c0,0.6,0,1.1-0.1,1.4
			c0.3,0,0.7,0,1.2,0v1.2h-3.5v-1c0.3,0,0.5,0,0.6-0.1c0.1,0,0.3-0.2,0.3-0.4c0.1-0.2,0.1-0.5,0.1-0.9l0.1-5.9c0-0.8,0-1.2,0-1.4
			h-1.1v-1.1h3.4l2.3,6c0.2,0.4,0.3,0.8,0.5,1.3c0.2,0.5,0.3,0.8,0.4,1.1l0,0c0,0,0.2-0.4,0.3-1c0.1-0.4,0.3-0.8,0.4-1.1l2.4-6.4
			h3.6v1c-0.3,0-0.5,0-0.6,0.1s-0.3,0.2-0.3,0.4c-0.1,0.2-0.1,0.5-0.1,0.9l0.2,5.9c0,0.5,0,1,0,1.4c0.3,0,0.7,0,1.2,0v1.2h-4.3v-1
			c0.3,0,0.5,0,0.6-0.1c0.2,0,0.3-0.2,0.3-0.4c0.1-0.2,0.1-0.5,0.1-0.9l-0.1-3.3V108c-0.1-1-0.1-1.7-0.1-2.1l0,0l-3.2,8.5H55
			L52.8,109.3L52.8,109.3z"/>
		<path class="st0" d="M64.4,113.2c0.3,0,0.5,0,0.6-0.1c0.1,0,0.3-0.2,0.3-0.4c0.1-0.2,0.1-0.5,0.1-0.9v-5.9c0-0.6,0-1.1,0-1.4h-1.1
			v-1.1h4.3c1.2,0,2.2,0.2,2.9,0.6c0.7,0.5,1.1,1.1,1.1,2c0,0.5-0.2,1-0.6,1.4s-0.9,0.7-1.7,0.9l0,0c1,0.2,1.7,0.5,2.2,1
			c0.5,0.5,0.8,1.1,0.8,1.8c0,1-0.3,1.7-1.1,2.3c-0.7,0.6-1.6,0.8-2.7,0.8h-5.3L64.4,113.2L64.4,113.2z M69.2,113.2
			c0.6,0,1.1-0.2,1.4-0.6c0.3-0.4,0.5-0.8,0.5-1.4c0-0.7-0.2-1.1-0.6-1.4c-0.4-0.3-0.8-0.4-1.4-0.4c-0.6,0-1,0-1.3,0v2.5
			c0,0.6,0,1,0,1.4C68.4,113.2,68.9,113.2,69.2,113.2L69.2,113.2z M68.6,108.2c0.6,0,1.1-0.2,1.3-0.6s0.4-0.9,0.4-1.5
			c0-0.6-0.2-1-0.5-1.2c-0.3-0.3-0.7-0.4-1.1-0.4c-0.2,0-0.4,0-0.5,0.1c-0.1,0-0.2,0.2-0.3,0.4c-0.1,0.2-0.1,0.5-0.1,0.8v2.4
			L68.6,108.2L68.6,108.2z"/>
		<path class="st0" d="M74.5,113.2c0.3,0,0.5,0,0.6-0.1c0.1,0,0.3-0.2,0.3-0.4c0.1-0.2,0.1-0.5,0.1-0.9v-5.9c0-0.6,0-1.1,0-1.4h-1.1
			v-1.1h4.4c1.4,0,2.5,0.2,3.3,0.7c0.8,0.5,1.1,1.3,1.1,2.5c0,0.7-0.2,1.4-0.7,1.9c-0.5,0.6-1.1,1-2,1.2l0,0c0,0,0.4,0.2,0.6,0.4
			c0.2,0.2,0.4,0.4,0.5,0.6l0.7,1.1c0.3,0.6,0.6,0.9,0.9,1.1c0.2,0.2,0.5,0.3,0.8,0.3v1h-2.5c0,0-0.3-0.3-0.5-0.6
			c-0.2-0.3-0.4-0.6-0.6-0.9l-1.1-1.9c-0.3-0.4-0.5-0.7-0.6-0.9h-0.8v1.7c0,0.6,0,1.1,0,1.4c0.3,0,0.8,0,1.3,0v1.2h-4.6v-1H74.5z
			 M80.4,108.4c0.4-0.4,0.6-1,0.6-1.8c0-0.8-0.2-1.4-0.7-1.7c-0.5-0.3-0.9-0.4-1.4-0.4c-0.4,0-0.6,0.1-0.8,0.3
			c-0.2,0.2-0.3,0.5-0.3,1v3.2c0.3,0,0.6,0,0.8,0C79.4,108.9,80,108.7,80.4,108.4L80.4,108.4z"/>
		<path class="st0" d="M85.1,113.2c0.3,0,0.5,0,0.6-0.1c0.1,0,0.3-0.2,0.3-0.4c0.1-0.2,0.1-0.5,0.1-0.9v-5.9c0-0.6,0-1.1,0-1.4h-1.1
			v-1.1h7.8l0.1,3h-1c0-0.8-0.2-1.3-0.6-1.6c-0.4-0.3-0.8-0.4-1.3-0.4h-0.6c-0.3,0-0.4,0-0.6,0.1c-0.2,0.1-0.3,0.2-0.3,0.4
			c-0.1,0.2-0.1,0.5-0.1,0.8v2.3h1.8c0,0,0-0.6,0-1.4h1.2v3.8h-1c0-0.4-0.1-0.7-0.2-0.9c-0.1-0.2-0.3-0.3-0.5-0.4
			c-0.2,0-0.5-0.1-0.8-0.1h-0.4v2.5c0,0.6,0,1,0,1.4h2.1c0.5,0,1-0.2,1.4-0.6s0.6-0.9,0.6-1.7h1l-0.1,3.4h-8.2L85.1,113.2
			L85.1,113.2z"/>
		<path class="st0" d="M94.7,113.2c0.3,0,0.5,0,0.6-0.1c0.1,0,0.3-0.2,0.3-0.4c0.1-0.2,0.1-0.5,0.1-0.9v-5.9c0-0.6,0-1.1,0-1.4h-1.1
			v-1.1h4.4v1c-0.3,0-0.5,0-0.6,0.1c-0.1,0-0.3,0.2-0.3,0.4c-0.1,0.2-0.1,0.5-0.1,0.9v5.9c0,0.6,0,1,0,1.4h2.1
			c0.6,0,1.1-0.2,1.4-0.7c0.3-0.4,0.5-1.1,0.5-1.9h1l-0.1,3.7h-8.3C94.7,114.3,94.7,113.2,94.7,113.2z"/>
		<path class="st0" d="M104.1,113.2c0.3,0,0.5,0,0.6-0.1c0.1,0,0.3-0.2,0.3-0.4c0.1-0.2,0.1-0.5,0.1-0.9v-5.9c0-0.6,0-1.1,0-1.4
			h-1.1v-1.1h4.4v1c-0.3,0-0.5,0-0.6,0.1c-0.1,0-0.3,0.2-0.3,0.4c-0.1,0.2-0.1,0.5-0.1,0.9v5.9c0,0.6,0,1,0,1.4h2.1
			c0.6,0,1.1-0.2,1.4-0.7c0.3-0.4,0.5-1.1,0.5-1.9h1l-0.1,3.7h-8.3C104.1,114.3,104.1,113.2,104.1,113.2z"/>
		<path class="st0" d="M112.9,113.2c0.3,0,0.5-0.1,0.7-0.2c0.2-0.2,0.3-0.3,0.4-0.6c0.1-0.2,0.2-0.6,0.4-1l3-8.3h1.1l3.3,8.5
			c0,0,0.2,0.5,0.3,0.8s0.2,0.6,0.2,0.8c0.3,0,0.6,0,0.9,0v1.2h-4.2v-1c0.5,0,0.8-0.2,0.8-0.6c0-0.2,0-0.5-0.2-0.8l-0.3-0.8h-3.3
			l-0.3,0.8c0,0.1-0.1,0.3-0.2,0.6c-0.1,0.3-0.2,0.5-0.3,0.7c0.3,0,0.7,0,1.1,0v1.2h-3.3L112.9,113.2L112.9,113.2z M118.8,109.9
			l-0.7-2c-0.3-0.8-0.5-1.6-0.6-2.1l0,0c-0.2,0.8-0.3,1.4-0.6,2l-0.7,2L118.8,109.9L118.8,109.9z"/>
	</g>
	<path class="st0" d="M49.4,101l72.2,0.3c0,0,1.7,0,1.7,1.7h1.7v-3.4H49.5L49.4,101L49.4,101z"/>
	<g>
		<path class="st0" d="M68.4,118.4l-0.2,0.6c-0.3-0.1-0.6-0.2-0.8-0.2c-0.2,0-0.5-0.1-0.8-0.1c-0.6,0-1.1,0.1-1.5,0.3
			c-0.4,0.2-0.6,0.6-0.8,0.9c-0.2,0.4-0.3,0.9-0.3,1.4c0,0.6,0.1,1,0.3,1.4c0.2,0.4,0.6,0.7,0.9,0.9c0.4,0.3,0.9,0.3,1.5,0.3
			c0.5,0,1-0.1,1.6-0.3l0.2,0.6c-0.6,0.3-1.3,0.4-2,0.4c-0.5,0-1-0.1-1.4-0.3c-0.4-0.2-0.8-0.4-1.1-0.7c-0.6-0.6-0.9-1.4-0.9-2.5
			c0-0.5,0.1-1,0.2-1.4c0.2-0.4,0.4-0.8,0.6-1c0.3-0.3,0.6-0.5,1.1-0.7c0.5-0.2,0.9-0.3,1.4-0.3c0.4,0,0.8,0,1.1,0.1
			C67.7,118.1,68,118.2,68.4,118.4L68.4,118.4z"/>
		<path class="st0" d="M69.7,118.2h0.8v6.7h-0.8V118.2z"/>
		<path class="st0" d="M72.2,118.2h1l3.6,5.6v-5.6h0.8v6.7h-1l-3.6-5.6v5.6h-0.8L72.2,118.2L72.2,118.2z"/>
		<path class="st0" d="M79.2,124.8v-6.7h3.9v0.7H80v2.2h2.8v0.7H80v2.4h3.1v0.7H79.2z"/>
		<path class="st0" d="M84.5,118.2h1.1l2.1,4l2.2-4H91v6.7h-0.8v-5.5l-2,3.6h-0.8l-2-3.6v5.5h-0.8L84.5,118.2L84.5,118.2z"/>
		<path class="st0" d="M97.6,124.8h-0.9l-0.6-2h-2.5l-0.6,2H92l2.3-6.7h1C95.3,118.2,97.6,124.8,97.6,124.8z M94.8,119l-1,3.2h2.1
			L94.8,119z"/>
	</g>
</g>
</svg>
