<?xml version="1.0" encoding="utf-8"?>
<!-- Generator: Adobe Illustrator 28.0.0, SVG Export Plug-In . SVG Version: 6.00 Build 0)  -->
<svg version="1.1" xmlns="http://www.w3.org/2000/svg" xmlns:xlink="http://www.w3.org/1999/xlink" x="0px" y="0px"
	 viewBox="0 0 304 165" style="enable-background:new 0 0 304 165;" xml:space="preserve">
<style type="text/css">
	.st0{fill:#000F5D;}
	.st1{fill:#F89B37;stroke:#F86C00;stroke-miterlimit:10;}
	.st2{fill:#0A2799;}
	.st3{fill:#4B23C8;}
	.st4{fill:#FFFFFF;}
	.st5{fill:#00226D;}
	.st6{fill:#FFFFFF;stroke:#0A2799;stroke-miterlimit:10;}
	.st7{fill:#0A2799;stroke:#0A2799;stroke-miterlimit:10;}
	.st8{fill:#F86C00;stroke:#F86C00;stroke-miterlimit:10;}
	.st9{display:none;}
	.st10{display:inline;fill:#0A2799;}
	.st11{display:inline;fill:#554AE1;}
	.st12{display:inline;fill:#F89B37;stroke:#F89B37;stroke-miterlimit:10;}
	.st13{display:inline;}
</style>
<g id="Layer_1">
	<g id="Umbrella">
		<g>
			<g>
				<path class="st0" d="M21.7,77.7c0,0,1.3-3.3,3.9-3.1c0,0,2.3-5.3,9.5-6.4c0,0,13.5-12.5,27-14.9c0,0,4.5-4.7,10.1-4.3
					c0,0,3.7-2.1,5-1.7c0,0-5.2,2-5.6,3.9c0,0-7.8,3.4-10,7.1c0,0-10.8,2-22.8,12.4c0,0-6.4,0.7-11.2,5.1
					C27.6,75.9,25.6,75,21.7,77.7L21.7,77.7z"/>
				<g>
					<polygon class="st1" points="63.2,89.2 64.1,88.8 44.8,53.2 43.9,53.6 					"/>
					<path class="st1" d="M42.6,51.1l0.9-0.4l-0.8-1.1c0,0-0.8-1.1-0.6,0.1L42.6,51.1z"/>
				</g>
			</g>
			<g>
				<path class="st2" d="M21.7,77.7c0,0,0-14.2,20.9-26.6c0,0-17,9.4-16.7,23.8C25.9,74.9,23.4,74.4,21.7,77.7z"/>
				<path class="st2" d="M35.2,69c0,0-2.1-13.1,7.7-18.1c9.7-5,19.3,3.1,19.7,3.3S52,54.2,35.2,69L35.2,69z"/>
				<path class="st2" d="M77.1,47.3c0,0-13.5-7.8-33.7,3.3c0,0,17.5-8.5,29.1-1.4C72.5,49.2,75.5,46.9,77.1,47.3L77.1,47.3z"/>
				<path class="st3" d="M25.9,74.9c0,0,1.8-4.7,9.3-5.9c0,0-1.1-12.3,5.8-16.9C41,52.1,25.1,61.8,25.9,74.9L25.9,74.9z"/>
				<path class="st3" d="M72.5,49.2c0,0-5.9-0.6-10,4.9c0,0-10-5-17.9-4C44.6,50.2,62.9,41.2,72.5,49.2z"/>
			</g>
			<path class="st2" d="M63,89.6c0,0-0.8-1.1,0.1-1.6s0.9-0.4,1.6,0.7c0,0,1.1,2.2,1.8,3.7c0.4,0.8,0.5,1.8,0.4,2.7
				c-0.2,1.5-1,3.7-3.3,4.6c-1.1,0.4-2.3,0.4-3.5,0c-1-0.4-2.3-1.1-2.7-2.4c-0.1-0.4-0.1-0.8,0.2-1.2c0.1-0.2,0.3-0.3,0.5-0.3
				c0.4-0.1,0.7,0.3,0.9,0.5c0.3,0.3,0.6,0.7,1,0.9c0.6,0.4,1.5,0.7,2.6,0.7c0.5,0,1-0.2,1.4-0.5c0.3-0.2,0.6-0.5,0.8-1
				c0.5-1,0.7-2.2,0.2-3.2L63,89.6L63,89.6z"/>
		</g>
	</g>
	<g id="Layer_4">
		<g>
			<path class="st4" d="M74.6,88.9c-1.8-2.5-2.8-5.9-2.8-10.3v-11c0-1.7,0.1-3.1,0.2-4.1l-3.2,0.1v-3.5H81v3c-0.7,0-1.3,0.1-1.7,0.3
				c-0.4,0.2-0.7,0.5-0.9,1.1C78.1,65.1,78,66,78,67.2v12.5c0,6.4,2.4,9.6,7.1,9.6c2.2,0,3.9-0.8,5.2-2.4s1.8-4.1,1.8-7.3V67.7
				c0-2,0.1-3.4,0.2-4.1l-3.2,0.1v-3.5h9.8v3c-0.8,0-1.3,0.1-1.7,0.3s-0.7,0.5-0.9,1.1c-0.2,0.5-0.3,1.4-0.3,2.6v11.3
				c0,5-1.1,8.6-3.2,10.8c-2.1,2.3-5,3.4-8.6,3.4C79.6,92.7,76.5,91.5,74.6,88.9L74.6,88.9z"/>
			<path class="st4" d="M106.3,81.4c-0.3-0.8-0.7-1.9-1.2-3.3s-0.8-2.9-1.2-4.3h0c0.1,2.1,0.1,3.9,0.1,5.6v1.2l0,6.1
				c0,1.4-0.1,2.4-0.2,3c0.7-0.1,1.6-0.1,2.6-0.1v2.6h-7.7V90c0.6,0,1.1-0.1,1.4-0.2s0.6-0.4,0.7-0.8s0.3-1,0.3-1.9l0.2-12.9
				c0-1.6,0.1-2.7,0.1-3l-2.5,0.1v-2.6h7.5l5.1,13.1c0.3,0.9,0.7,1.8,1.1,2.9s0.7,1.9,0.8,2.4h0c0.1-0.2,0.3-0.9,0.7-2.1
				c0.3-0.9,0.6-1.7,0.8-2.4l5.2-13.9h7.8v2.2c-0.6,0-1.1,0.1-1.4,0.2s-0.6,0.4-0.8,0.8s-0.3,1-0.2,1.9l0.5,12.9
				c0.1,1.2,0,2.2-0.1,3c0.7-0.1,1.6-0.1,2.6-0.1v2.6h-9.4V90c0.6,0,1.1-0.1,1.4-0.2s0.6-0.4,0.8-0.8s0.3-1,0.2-1.9l-0.3-7.2
				l-0.1-1.3c-0.1-2.2-0.2-3.7-0.2-4.6h0L114,92.5h-3.1L106.3,81.4L106.3,81.4z"/>
			<path class="st4" d="M131.6,89.9c0.6,0,1.1-0.1,1.4-0.2s0.6-0.4,0.7-0.8c0.2-0.4,0.3-1,0.3-1.9V74.1c0-1.3,0.1-2.3,0.1-3
				l-2.5,0.1v-2.6l9.4-0.1c2.7,0,4.8,0.5,6.3,1.4c1.5,1,2.3,2.4,2.3,4.3c0,1.1-0.4,2.1-1.2,3.1s-2,1.6-3.6,2v0
				c2.2,0.3,3.8,1.1,4.9,2.2s1.6,2.4,1.6,3.9c0,2.1-0.8,3.8-2.3,5s-3.5,1.8-5.9,1.8h-11.5L131.6,89.9L131.6,89.9z M142,89.7
				c1.3-0.1,2.3-0.5,3-1.3s1-1.8,1-3.1c0-1.4-0.4-2.5-1.2-3.1s-1.9-1-3.1-1s-2.1,0-2.7,0v5.5c0,1.2-0.1,2.2-0.1,3
				C140.2,89.8,141.3,89.8,142,89.7L142,89.7z M140.6,78.9c1.3,0,2.3-0.4,2.9-1.3c0.6-0.8,0.9-1.9,0.9-3.3c0-1.2-0.3-2.1-1-2.7
				c-0.7-0.6-1.5-0.8-2.5-0.8c-0.5,0-0.9,0.1-1.1,0.2s-0.5,0.4-0.7,0.8c-0.2,0.4-0.2,1-0.2,1.9v5.2L140.6,78.9L140.6,78.9z"/>
			<path class="st4" d="M153.5,89.9c0.6,0,1.1-0.1,1.4-0.2s0.6-0.4,0.7-0.8c0.2-0.4,0.3-1,0.3-1.9V74.1c0-1.3,0.1-2.3,0.1-3
				l-2.5,0.1v-2.6l9.6-0.1c3.1,0,5.5,0.5,7.1,1.6c1.7,1.1,2.5,2.9,2.5,5.4c0,1.6-0.5,2.9-1.5,4.1s-2.5,2.1-4.4,2.7v0
				c0.4,0.2,0.8,0.4,1.2,0.8c0.4,0.4,0.8,0.8,1.1,1.3l1.6,2.4c0.8,1.2,1.4,2,1.9,2.5c0.5,0.4,1.1,0.7,1.9,0.7v2.2h-5.6
				c-0.4-0.3-0.8-0.7-1.1-1.2s-0.8-1.2-1.3-2l-2.5-4.1c-0.6-0.9-1-1.6-1.4-2h-1.8v3.6c0,1.3-0.1,2.3-0.1,3.1
				c0.7-0.1,1.7-0.1,2.9-0.1v2.6h-10L153.5,89.9L153.5,89.9z M166.4,79.3c0.8-0.8,1.2-2.1,1.2-3.9c0-1.9-0.5-3.1-1.4-3.7
				s-2-0.9-3.1-0.9c-0.8,0-1.4,0.2-1.7,0.5c-0.4,0.3-0.5,1.1-0.5,2.2v6.9c0.7,0.1,1.2,0.1,1.6,0.1C164.3,80.6,165.6,80.2,166.4,79.3
				L166.4,79.3z"/>
			<path class="st4" d="M176.7,89.9c0.6,0,1.1-0.1,1.4-0.2s0.6-0.4,0.7-0.8c0.2-0.4,0.3-1,0.3-1.9V74.1c0-1.3,0.1-2.3,0.1-3
				l-2.5,0.1v-2.6h16.9l0.2,6.6h-2.2c0-1.7-0.4-2.8-1.2-3.5s-1.8-0.9-2.9-0.9l-1.2,0c-0.5,0-1,0.1-1.3,0.2s-0.6,0.4-0.7,0.8
				s-0.2,1.1-0.2,1.9v5.1h3.9c0-0.4-0.1-1.4-0.1-2.9h2.6V84h-2.2c0-0.9-0.1-1.6-0.4-2c-0.3-0.4-0.6-0.7-1.1-0.8
				c-0.4-0.1-1.1-0.2-1.8-0.2l-0.9,0v5.5c0,1.2-0.1,2.2-0.1,3h4.5c1.1,0,2.1-0.4,2.9-1.2s1.2-2,1.2-3.7h2.2l-0.2,7.4h-17.8
				L176.7,89.9L176.7,89.9z"/>
			<path class="st4" d="M197.7,89.9c0.6,0,1.1-0.1,1.4-0.2s0.6-0.4,0.7-0.8c0.2-0.4,0.3-1,0.3-1.9V74.1c0-1.3,0.1-2.3,0.1-3
				l-2.5,0.1v-2.6h9.7v2.2c-0.6,0-1.1,0.1-1.4,0.2s-0.6,0.4-0.7,0.8c-0.2,0.4-0.3,1-0.3,1.9v12.9c0,1.2-0.1,2.2-0.1,3h4.5
				c1.4,0,2.4-0.5,3.1-1.4c0.7-0.9,1.1-2.3,1.1-4.1h2.3l-0.2,8.1h-18L197.7,89.9L197.7,89.9z"/>
			<path class="st4" d="M218.1,89.9c0.6,0,1.1-0.1,1.4-0.2s0.6-0.4,0.7-0.8c0.2-0.4,0.3-1,0.3-1.9V74.1c0-1.3,0.1-2.3,0.1-3
				l-2.5,0.1v-2.6h9.7v2.2c-0.6,0-1.1,0.1-1.4,0.2s-0.6,0.4-0.7,0.8c-0.2,0.4-0.3,1-0.3,1.9v12.9c0,1.2-0.1,2.2-0.1,3h4.5
				c1.4,0,2.4-0.5,3.1-1.4c0.7-0.9,1.1-2.3,1.1-4.1h2.3l-0.2,8.1h-18L218.1,89.9L218.1,89.9z"/>
			<path class="st4" d="M237.4,89.8c0.6,0,1.1-0.2,1.5-0.5c0.4-0.3,0.7-0.8,0.9-1.2s0.5-1.2,0.8-2.1l6.6-18h2.4l7.2,18.4
				c0.2,0.4,0.4,1,0.6,1.7s0.3,1.2,0.4,1.7c0.7-0.1,1.4-0.1,2-0.1v2.6h-9.1v-2.2c1.1,0,1.6-0.4,1.6-1.3c0-0.4-0.1-1-0.4-1.6
				l-0.7-1.9l-7.3,0.1l-0.5,1.6c-0.1,0.2-0.2,0.6-0.5,1.2c-0.2,0.6-0.4,1.1-0.6,1.5c0.7-0.1,1.5-0.1,2.4-0.1v2.7h-7.2L237.4,89.8
				L237.4,89.8z M250.3,82.7l-1.6-4.2c-0.6-1.8-1.1-3.4-1.3-4.6h0c-0.4,1.6-0.8,3.1-1.2,4.4l-1.5,4.4L250.3,82.7L250.3,82.7z"/>
		</g>
		<path class="st4" d="M98.9,63.2L256.4,64c0,0,3.8,0,3.8,3.8h3.8v-7.5h-165C98.9,60.2,98.9,63.2,98.9,63.2z"/>
	</g>
	<g id="_Layer_">
		<g>
			<polygon class="st5" points="46.2,81.9 63.9,81.9 63.7,75.5 46.3,75.6 			"/>
			<polygon class="st6" points="45.2,70.2 46.2,72.8 62.6,67.3 61.7,64.8 			"/>
			
				<rect x="46.2" y="72.7" transform="matrix(1 -5.934085e-03 5.934085e-03 1 -0.4389 0.3277)" class="st6" width="17.6" height="2.8"/>
			<polygon class="st7" points="62.5,67.2 60.2,65.4 58.9,65.8 61.1,67.7 			"/>
			<polygon class="st7" points="59.6,68.3 57.3,66.5 56,66.9 58.2,68.8 			"/>
			<polygon class="st7" points="53.6,70.2 51.2,68.4 50,68.8 52.2,70.7 			"/>
			<polygon class="st7" points="56.6,69.3 54.3,67.4 53,67.8 55.2,69.8 			"/>
			<polygon class="st7" points="50.8,71.2 48.5,69.3 47.2,69.7 49.4,71.7 			"/>
			<path class="st7" d="M48,72.1l-2.3-1.8c-0.1,0-0.3,0-0.3,0.1c0,0.1,0.1,0.2,0.2,0.5c0.1,0.2,0.2,0.4,0.2,0.7l0.8,1.1L48,72.1
				L48,72.1z"/>
			<polygon class="st7" points="46.8,75.4 49.1,72.9 50.7,72.9 48.4,75.5 			"/>
			<polygon class="st7" points="50,75.4 52.3,72.9 54,72.8 51.7,75.5 			"/>
			<polygon class="st7" points="53.5,75.4 55.8,72.8 57.4,72.8 55.1,75.5 			"/>
			<polygon class="st7" points="57,75.4 59.3,72.8 60.9,72.8 58.6,75.5 			"/>
			<path class="st7" d="M62.8,72.8l-2.3,2.6l1.6,0.1l1.7-2v-0.7L62.8,72.8L62.8,72.8z"/>
			<polygon class="st7" points="46.3,74.1 47.5,72.9 46.3,72.9 			"/>
			<g>
				<path class="st8" d="M48.1,73.8c0,0.1,0.1,0.2,0.2,0.2h1.2c0,0,0.5,0,0.2-0.7c-0.2-0.6-0.7-1.8-0.9-2.2c0-0.1-0.1-0.2-0.2-0.2
					c-0.2,0-0.5-0.1-0.5,0.3v1.2L48.1,73.8L48.1,73.8z"/>
				<circle class="st4" cx="48.6" cy="71.4" r="0.2"/>
				<circle class="st4" cx="48.9" cy="73.4" r="0.2"/>
			</g>
		</g>
		<g>
			<path class="st4" d="M140.2,101.2l-0.5,1.4c-0.6-0.2-1.2-0.4-1.7-0.5s-1.1-0.2-1.8-0.2c-1.4,0-2.4,0.2-3.2,0.6
				c-0.8,0.5-1.4,1.2-1.9,2c-0.4,0.9-0.6,1.9-0.6,3.2s0.2,2.2,0.7,3.1c0.5,0.9,1.2,1.6,2,2.1c0.9,0.5,2,0.8,3.2,0.8
				c1,0,2.1-0.2,3.4-0.7l0.4,1.4c-1.3,0.6-2.7,0.9-4.4,0.9c-1.1,0-2.1-0.2-3.1-0.6s-1.7-0.9-2.4-1.5c-1.3-1.4-2-3.2-2-5.4
				c0-1.1,0.2-2.2,0.5-3.1c0.3-0.9,0.8-1.7,1.4-2.2c0.6-0.7,1.4-1.2,2.3-1.5c1-0.4,2-0.6,3-0.6s1.8,0.1,2.4,0.2
				C138.7,100.7,139.3,100.9,140.2,101.2L140.2,101.2z"/>
			<path class="st4" d="M143.2,100.6h1.7v14.5h-1.7V100.6z"/>
			<path class="st4" d="M148.5,100.6h2.2l7.9,12.2v-12.2h1.8v14.5h-2.2l-7.9-12.2v12.2h-1.7L148.5,100.6L148.5,100.6z"/>
			<path class="st4" d="M163.8,115.2v-14.5h8.5v1.5h-6.8v4.8h6.2v1.5h-6.2v5.2h6.8v1.5H163.8z"/>
			<path class="st4" d="M175.4,100.6h2.5l4.6,8.8l4.8-8.8h2.3v14.5h-1.7v-12.1l-4.5,7.9h-1.8l-4.5-7.9v12.1h-1.7L175.4,100.6
				L175.4,100.6z"/>
			<path class="st4" d="M203.9,115.2h-1.9l-1.4-4.2H195l-1.4,4.2h-1.8l5-14.5h2.1L203.9,115.2L203.9,115.2z M197.8,102.5l-2.2,6.9
				h4.5L197.8,102.5L197.8,102.5z"/>
		</g>
	</g>
</g>
<g id="colours" class="st9">
	<rect x="1" y="-28.6" class="st10" width="24.7" height="25.9"/>
	<rect x="29.2" y="-28.9" class="st11" width="24.7" height="25.9"/>
	<rect x="-1.4" y="-97.3" class="st11" width="62.1" height="48.4"/>
	<rect x="58.6" y="-28.5" class="st10" width="24.7" height="25.9"/>
	<rect x="87.9" y="-28.5" class="st12" width="24.7" height="25.9"/>
	<g class="st13">
		<g id="Umbrella_00000057861974109335230580000007015654033980774565_">
			<g>
				<g>
					<path class="st0" d="M0.6-65.2c0,0,1.3-3.3,3.9-3.1c0,0,2.3-5.3,9.5-6.4c0,0,13.5-12.6,27-14.9c0,0,4.5-4.7,10.1-4.3
						c0,0,3.7-2.1,5-1.7c0,0-5.2,2-5.6,3.9c0,0-7.8,3.4-10,7.1c0,0-10.8,2-22.8,12.4c0,0-6.4,0.7-11.2,5.1C6.5-67,4.5-67.9,0.6-65.2
						L0.6-65.2z"/>
					<g>
						<polygon class="st1" points="42.1,-53.7 43,-54.1 23.6,-89.7 22.8,-89.2 						"/>
						<path class="st1" d="M21.5-91.8l0.9-0.4l-0.8-1.1c0,0-0.8-1.1-0.6,0.1L21.5-91.8z"/>
					</g>
				</g>
				<g>
					<path class="st2" d="M0.6-65.2c0,0,0-14.2,20.9-26.6c0,0-17,9.4-16.7,23.8C4.8-68,2.2-68.5,0.6-65.2z"/>
					<path class="st2" d="M14.1-73.9c0,0-2.1-13.1,7.7-18.1c9.7-5,19.3,3.1,19.7,3.3S30.9-88.6,14.1-73.9L14.1-73.9z"/>
					<path class="st2" d="M56-95.6c0,0-13.5-7.8-33.7,3.3c0,0,17.5-8.5,29.1-1.4C51.4-93.6,54.4-95.9,56-95.6L56-95.6z"/>
					<path class="st3" d="M4.8-68c0,0,1.8-4.7,9.3-5.9c0,0-1.1-12.3,5.8-16.9C19.9-90.8,4-81.1,4.8-68L4.8-68z"/>
					<path class="st3" d="M51.4-93.6c0,0-5.9-0.6-10,4.9c0,0-10-5-17.9-4C23.5-92.7,41.8-101.7,51.4-93.6z"/>
				</g>
				<path class="st2" d="M41.9-53.3c0,0-0.8-1.1,0.1-1.6s0.9-0.4,1.6,0.7c0,0,1.1,2.2,1.8,3.7c0.4,0.8,0.5,1.8,0.4,2.7
					c-0.2,1.5-1,3.7-3.3,4.6c-1.1,0.4-2.3,0.4-3.5,0c-1-0.4-2.3-1.1-2.7-2.4c-0.1-0.4-0.1-0.8,0.2-1.2c0.1-0.2,0.3-0.3,0.5-0.3
					c0.4-0.1,0.7,0.3,0.9,0.5c0.3,0.3,0.6,0.7,1,0.9c0.6,0.4,1.5,0.7,2.6,0.7c0.5,0,1-0.2,1.4-0.5c0.3-0.2,0.6-0.5,0.8-1
					c0.5-1,0.7-2.2,0.2-3.2L41.9-53.3L41.9-53.3z"/>
			</g>
		</g>
		<g>
			<polygon class="st5" points="25.1,-60.9 42.8,-60.9 42.5,-67.3 25.2,-67.3 			"/>
			<polygon class="st6" points="24.1,-72.6 25.1,-70.1 41.5,-75.5 40.6,-78.1 			"/>
			
				<rect x="25.1" y="-70.1" transform="matrix(1 -5.934085e-03 5.934085e-03 1 0.4085 0.1999)" class="st6" width="17.6" height="2.8"/>
			<polygon class="st7" points="41.4,-75.6 39.1,-77.5 37.8,-77.1 40,-75.2 			"/>
			<polygon class="st7" points="38.5,-74.5 36.2,-76.4 34.9,-76 37.1,-74 			"/>
			<polygon class="st7" points="32.5,-72.6 30.1,-74.5 28.9,-74.1 31.1,-72.2 			"/>
			<polygon class="st7" points="35.5,-73.6 33.1,-75.4 31.9,-75 34.1,-73.1 			"/>
			<polygon class="st7" points="29.7,-71.7 27.4,-73.5 26.1,-73.1 28.3,-71.2 			"/>
			<path class="st7" d="M26.9-70.7l-2.3-1.8c-0.1,0-0.3,0-0.3,0.1c0,0.1,0.1,0.2,0.2,0.5c0.1,0.2,0.2,0.4,0.2,0.7l0.8,1.1L26.9-70.7
				L26.9-70.7z"/>
			<polygon class="st7" points="25.7,-67.4 28,-70 29.6,-70 27.3,-67.3 			"/>
			<polygon class="st7" points="28.9,-67.4 31.2,-70 32.8,-70 30.5,-67.4 			"/>
			<polygon class="st7" points="32.4,-67.5 34.7,-70 36.3,-70 34,-67.4 			"/>
			<polygon class="st7" points="35.9,-67.5 38.2,-70 39.8,-70.1 37.5,-67.4 			"/>
			<path class="st7" d="M41.7-70.1l-2.3,2.6l1.6,0.1l1.7-2v-0.7L41.7-70.1L41.7-70.1z"/>
			<polygon class="st7" points="25.2,-68.8 26.4,-70 25.2,-70 			"/>
			<g>
				<path class="st8" d="M27-69.1c0,0.1,0.1,0.2,0.2,0.2h1.2c0,0,0.5,0,0.2-0.7c-0.2-0.6-0.7-1.8-0.9-2.2c0-0.1-0.1-0.2-0.2-0.2
					C27.3-72,27-72,27-71.7v1.2L27-69.1L27-69.1z"/>
				<circle class="st4" cx="27.5" cy="-71.4" r="0.2"/>
				<circle class="st4" cx="27.8" cy="-69.5" r="0.2"/>
			</g>
		</g>
	</g>
</g>
</svg>
