<?xml version="1.0" encoding="UTF-8"?>
<svg xmlns="http://www.w3.org/2000/svg" viewBox="0 0 204 188">
  <defs>
    <style>
      .cls-1, .cls-2 {
        stroke: #3c4f99;
      }

      .cls-1, .cls-2, .cls-3, .cls-4 {
        stroke-miterlimit: 10;
      }

      .cls-1, .cls-5 {
        fill: #fff;
      }

      .cls-2 {
        fill: #3c4f99;
      }

      .cls-3 {
        fill: #f89142;
        stroke: #f89142;
      }

      .cls-4 {
        fill: #f86c00;
        stroke: #f86c00;
      }

      .cls-6 {
        fill: #4b23c8;
      }

      .cls-6, .cls-7, .cls-8, .cls-5, .cls-9 {
        stroke-width: 0px;
      }

      .cls-7 {
        fill: #0a2799;
      }

      .cls-8 {
        fill: #02236d;
      }

      .cls-9 {
        fill: #000f5d;
      }
    </style>
  </defs>
  <g id="Umbrella">
    <g>
      <g>
        <path class="cls-9" d="m116.08,96.63s2.3-.61,3.18.82c0,0,3.73-.92,7.24,2.49,0,0,12.14,2.13,18.86,8.37,0,0,4.33.51,6.4,3.65,0,0,2.61,1.12,2.91,1.98,0,0-3.2-1.97-4.34-1.38,0,0-4.94-2.81-7.82-2.48,0,0-5.41-4.97-15.82-7.12,0,0-2.93-3.13-7.27-3.93,0,0-.31-1.44-3.35-2.4Z"/>
        <g>
          <polygon class="cls-4" points="126.71 123.43 127.29 123.71 138.46 99.04 137.88 98.76 126.71 123.43"/>
          <path class="cls-4" d="m138.72,97.02l.58.28.28-.87s.28-.87-.29-.28l-.56.87Z"/>
        </g>
      </g>
      <g>
        <path class="cls-7" d="m116.08,96.63s7.56-5.73,22.64.39c0,0-11.9-5.3-19.45.72,0,0-.74-1.57-3.19-1.11Z"/>
        <path class="cls-7" d="m126.17,100.29s6.15-6.4,12.76-3.23c6.61,3.17,6.16,11.53,6.16,11.82s-4.26-5.56-18.92-8.59Z"/>
        <path class="cls-7" d="m154.68,113.94s-1.3-10.36-15.38-16.64c0,0,11.62,5.88,12.47,14.95,0,0,2.46.68,2.91,1.69Z"/>
        <path class="cls-6" d="m119.27,97.73s3.2-.92,6.91,2.56c0,0,6.14-5.59,11.37-3.74,0,0-11.58-4.54-18.28,1.18Z"/>
        <path class="cls-6" d="m151.77,112.25s-2.07-3.43-6.68-3.36c0,0-1.37-7.33-5.06-11.17,0,0,12.2,6.16,11.75,14.53Z"/>
      </g>
      <path class="cls-7" d="m126.42,123.43s.28-.87.86-.59.58.28.31,1.15c0,0-.72,1.5-1.24,2.45-.29.54-.72.99-1.26,1.28-.89.48-2.37.98-3.76.08-.67-.43-1.14-1.11-1.39-1.87-.23-.71-.35-1.66.2-2.44.16-.23.42-.39.7-.4.14,0,.28.02.38.12.19.18.14.49.08.68-.08.28-.11.58-.08.87.05.46.21,1.08.69,1.66.22.26.51.48.84.58.23.07.52.1.85.02.75-.17,1.45-.48,1.76-1.18l1.05-2.41Z"/>
    </g>
  </g>
  <g id="Layer_4" data-name="Layer 4">
    <path class="cls-5" d="m44.37,128.95c-5.26-7.21-7.89-16.99-7.89-29.34v-31.34c0-4.83.16-8.71.48-11.65l-9.04.38v-9.96h34.6v8.54c-2.09.08-3.71.37-4.88.84-1.17.48-2.07,1.49-2.71,3.05-.64,1.55-.96,4-.96,7.38v35.61c0,18.31,6.75,27.46,20.25,27.46,6.35,0,11.28-2.33,14.77-7,3.5-4.65,5.25-11.56,5.25-20.71v-33.94c0-5.78.16-9.67.48-11.65l-9.16.38v-9.96h27.97v8.54c-2.17.08-3.82.37-4.94.84-1.12.48-2.01,1.49-2.65,3.05-.65,1.55-.97,4-.97,7.38v32.38c0,14.16-3.03,24.45-9.1,30.89-6.07,6.44-14.29,9.64-24.66,9.64-12.62,0-21.56-3.6-26.82-10.81Z"/>
    <path class="cls-5" d="m113.51,55.59l58.65,2.16s1.4,0,1.4,10.7h1.4v-21.4h-61.44v8.54Z"/>
  </g>
  <g id="_Layer_" data-name="&amp;lt;Layer&amp;gt;">
    <path class="cls-5" d="m128.51,74.37l-2.58,7.71c-3.43-1.07-6.44-1.85-9.06-2.33-2.61-.48-5.76-.69-9.46-.63-7.38.12-13.15,1.36-17.27,3.71-4.32,2.63-7.6,6.35-9.84,11.17-2.24,4.82-3.31,10.49-3.2,17.03.1,6.35,1.51,11.89,4.25,16.63,2.73,4.74,6.39,8.41,10.97,10.98,5.07,2.66,10.91,3.94,17.55,3.83,5.49-.09,11.58-1.47,18.26-4.14l2.39,7.35c-6.86,3.52-14.65,5.36-23.36,5.5-5.97.1-11.48-.86-16.53-2.86-5.06-2-9.31-4.67-12.78-8.03-7.22-7.28-10.93-16.92-11.13-28.96-.1-6.15.71-11.68,2.43-16.58,1.72-4.92,4.16-9,7.33-12.27,3.35-3.55,7.38-6.33,12.08-8.31,5.46-2.26,10.79-3.45,16-3.53s9.66.18,13.09.79c2.28.44,5.9,1.41,10.85,2.95Z"/>
    <g>
      <polygon class="cls-8" points="125.27 118.36 135.23 120.34 135.83 116.69 126.04 114.76 125.27 118.36"/>
      <polygon class="cls-1" points="126.03 111.63 126.27 113.17 136.17 111.95 135.92 110.41 126.03 111.63"/>
      <rect class="cls-1" x="130.3" y="109.85" width="1.6" height="10.15" transform="translate(-6.61 221.84) rotate(-79.06)"/>
      <polygon class="cls-2" points="136.12 111.88 135.01 110.57 134.25 110.65 135.28 111.99 136.12 111.88"/>
      <polygon class="cls-2" points="134.35 112.17 133.24 110.87 132.49 110.95 133.51 112.28 134.35 112.17"/>
      <polygon class="cls-2" points="130.74 112.56 129.63 111.26 128.87 111.34 129.9 112.67 130.74 112.56"/>
      <polygon class="cls-2" points="132.54 112.37 131.44 111.07 130.68 111.14 131.71 112.48 132.54 112.37"/>
      <polygon class="cls-2" points="129.06 112.78 127.95 111.48 127.2 111.56 128.23 112.89 129.06 112.78"/>
      <path class="cls-2" d="m127.39,113l-1.11-1.3c-.07-.02-.17-.04-.2,0-.04.05.03.14.08.29.03.09.06.23.06.42l.33.7.84-.11Z"/>
      <polygon class="cls-2" points="126.31 114.74 127.9 113.55 128.82 113.73 127.22 114.97 126.31 114.74"/>
      <polygon class="cls-2" points="128.15 115.1 129.74 113.91 130.65 114.09 129.06 115.32 128.15 115.1"/>
      <polygon class="cls-2" points="130.11 115.48 131.7 114.29 132.62 114.47 131.02 115.7 130.11 115.48"/>
      <polygon class="cls-2" points="132.08 115.86 133.67 114.67 134.59 114.85 132.99 116.08 132.08 115.86"/>
      <path class="cls-2" d="m135.64,115.05l-1.59,1.19.91.22,1.2-.93.07-.37-.59-.11Z"/>
      <polygon class="cls-2" points="126.2 113.9 126.98 113.38 126.33 113.25 126.2 113.9"/>
      <g>
        <path class="cls-3" d="m127.25,113.97c-.01.05.02.1.08.11l.69.13s.26.05.21-.37c-.05-.35-.2-1.08-.25-1.33-.01-.06-.05-.1-.1-.12-.11-.04-.3-.09-.33.09l-.13.66-.16.82Z"/>
        <circle class="cls-5" cx="127.77" cy="112.67" r=".13"/>
        <circle class="cls-5" cx="127.76" cy="113.82" r=".13"/>
      </g>
    </g>
  </g>
</svg>